<svg width="72" height="74" viewBox="0 0 72 74" fill="none" xmlns="http://www.w3.org/2000/svg">
<path d="M68.6628 21.0273H61.0341V15.0005C61.0341 14.7543 60.9422 14.5183 60.7788 14.3443L48.3176 1.07942C48.1542 0.905474 47.9325 0.807617 47.7013 0.807617H16.3503C15.8689 0.807617 15.4787 1.223 15.4787 1.73557V45.4507H1.8716C1.39016 45.4507 1 45.8661 1 46.3787V72.5641C1 73.0767 1.39016 73.4921 1.8716 73.4921H50.5727C51.0541 73.4921 51.4443 73.0767 51.4443 72.5641V66.325H60.1625C60.644 66.325 61.0341 65.9096 61.0341 65.3971V36.2962H68.6628C69.9515 36.2962 71 35.18 71 33.8079V23.5157C71 22.1435 69.9517 21.0273 68.6628 21.0273ZM48.5731 3.97566L58.0582 14.0725H48.5731V3.97566ZM49.7011 71.6363H2.7432V47.3067H49.7011V71.6363ZM59.2909 64.4691H51.4443V46.3787C51.4443 45.8661 51.0541 45.4507 50.5727 45.4507H17.2219V2.66353H46.8299V15.0005C46.8299 15.513 47.22 15.9284 47.7015 15.9284H59.2909V21.0273H49.5938C48.3051 21.0273 47.2566 22.1435 47.2566 23.5155V33.8078C47.2566 35.1798 48.3051 36.296 49.5938 36.296H59.2909V64.4691ZM69.2568 33.8079C69.2568 34.1567 68.9904 34.4403 68.6628 34.4403H49.5938C49.2662 34.4403 48.9998 34.1567 48.9998 33.8079V23.5157C48.9998 23.167 49.2662 22.8834 49.5938 22.8834H68.6628C68.9904 22.8834 69.2568 23.167 69.2568 23.5157V33.8079Z" fill="#754DE8" stroke="#754DE8"/>
</svg>
